<?xml version="1.0" standalone="no"?>
<!DOCTYPE svg PUBLIC "-//W3C//DTD SVG 20010904//EN"
 "http://www.w3.org/TR/2001/REC-SVG-20010904/DTD/svg10.dtd">
<svg version="1.0" xmlns="http://www.w3.org/2000/svg"
 width="847.000000pt" height="847.000000pt" viewBox="0 0 847.000000 847.000000"
 preserveAspectRatio="xMidYMid meet">
<metadata>
Created by potrace 1.14, written by Peter Selinger 2001-2017
</metadata>
<g transform="translate(0.000000,847.000000) scale(0.100000,-0.100000)"
fill="#000000" stroke="none">
<path d="M2036 8449 c-11 -10 -28 -19 -38 -19 -10 0 -27 -6 -38 -12 -17 -11
-22 -10 -30 2 -8 13 -10 13 -10 -1 0 -9 -6 -22 -14 -29 -8 -6 -16 -26 -18 -43
-2 -24 -7 -31 -20 -29 -15 2 -17 -5 -11 -65 3 -37 12 -78 20 -93 17 -32 16
-48 -2 -84 -16 -31 -11 -50 11 -42 23 9 41 -3 54 -35 8 -19 20 -29 34 -29 24
-1 56 -22 56 -38 0 -16 53 -28 58 -14 2 8 21 10 55 6 46 -5 55 -3 73 18 29 32
60 148 43 158 -8 5 -11 24 -9 52 11 139 -10 207 -77 244 -17 10 -34 26 -36 36
-3 10 -14 18 -26 18 -12 0 -21 5 -21 10 0 17 -34 10 -54 -11z"/>
<path d="M3781 8233 c-40 -4 -111 -39 -125 -62 -3 -5 -15 -7 -26 -4 -30 8 -59
-33 -60 -84 0 -24 -4 -43 -10 -43 -5 0 -10 -9 -10 -20 0 -15 7 -20 25 -20 22
0 25 -4 25 -33 0 -28 7 -37 48 -63 64 -41 96 -52 174 -57 61 -4 69 -3 90 20
13 14 35 31 50 39 15 8 29 23 33 34 3 11 15 20 26 20 10 0 19 5 19 10 0 6 8
10 19 10 22 0 31 26 31 91 0 55 -23 90 -64 94 -15 2 -36 11 -45 19 -10 9 -23
16 -30 16 -6 0 -21 9 -33 20 -22 20 -37 21 -137 13z"/>
<path d="M2085 7700 c3 -5 -1 -10 -10 -10 -10 0 -26 -21 -41 -56 -22 -49 -23
-60 -13 -92 7 -21 13 -43 15 -49 4 -17 29 -16 46 1 8 7 30 17 49 21 53 11 79
41 79 92 0 28 -4 42 -12 41 -7 -2 -17 7 -22 19 -6 12 -21 26 -34 32 -29 14
-65 14 -57 1z"/>
<path d="M3730 7691 c0 -6 -5 -11 -12 -11 -16 0 -59 -50 -52 -61 3 -5 1 -9 -5
-9 -6 0 -18 -16 -27 -36 -17 -36 -54 -60 -65 -42 -4 7 -9 6 -13 -1 -4 -6 -16
-11 -27 -11 -10 0 -19 -5 -19 -10 0 -6 -15 -8 -37 -5 -21 3 -96 7 -168 10 -71
3 -209 9 -305 14 -96 5 -178 7 -182 4 -5 -2 -43 -4 -85 -4 -93 1 -266 -18
-274 -30 -3 -5 -38 -10 -78 -12 -40 -2 -77 -9 -84 -16 -6 -6 -25 -11 -42 -11
-33 -1 -120 -22 -130 -32 -4 -3 -18 -3 -33 1 -15 4 -34 4 -42 0 -8 -4 -30 -13
-47 -19 -18 -7 -33 -19 -33 -27 0 -7 -10 -18 -22 -23 -13 -5 -20 -9 -17 -9 3
-1 2 -25 -3 -53 -5 -29 -13 -82 -16 -118 -5 -41 -12 -65 -19 -66 -7 -1 -19 -2
-27 -3 -10 -1 -13 -9 -10 -23 2 -13 0 -36 -6 -53 -10 -33 -17 -69 -29 -160 -7
-47 -6 -62 5 -71 8 -6 14 -22 14 -35 0 -13 7 -53 15 -88 12 -48 13 -72 5 -95
-5 -17 -11 -80 -11 -139 -1 -97 1 -109 19 -124 15 -13 23 -34 26 -73 3 -30 6
-57 7 -60 1 -3 2 -28 3 -56 1 -42 -2 -50 -14 -46 -8 3 -12 2 -8 -3 4 -4 2 -15
-5 -23 -9 -12 -9 -16 1 -19 6 -3 12 -16 12 -29 0 -13 5 -24 10 -24 6 0 18 -12
28 -27 9 -16 23 -29 30 -30 6 -2 18 -4 24 -5 7 -2 17 -12 23 -22 5 -11 22 -23
37 -27 15 -4 33 -12 40 -18 68 -56 73 -58 158 -65 47 -4 87 -11 88 -16 2 -6
21 -10 43 -10 28 0 39 4 39 15 0 8 9 15 20 16 56 3 68 2 100 -5 19 -5 41 -8
48 -7 8 1 19 -2 25 -7 7 -5 54 -12 105 -16 60 -4 110 -13 139 -26 25 -11 62
-20 83 -20 21 0 43 -7 50 -15 8 -10 9 -15 2 -15 -7 0 -10 -26 -9 -72 2 -65 -3
-84 -40 -173 -22 -55 -47 -119 -54 -142 -10 -35 -19 -45 -46 -55 -24 -9 -33
-18 -33 -35 0 -12 -11 -52 -25 -89 -16 -42 -25 -87 -25 -124 0 -31 -3 -60 -7
-64 -8 -7 -9 -12 -11 -53 -2 -17 -8 -23 -24 -22 -13 0 -84 -1 -158 -2 -90 -1
-144 2 -158 10 -14 8 -39 10 -66 6 -56 -9 -149 18 -212 61 -18 13 -52 28 -74
34 -23 6 -49 19 -59 29 -15 15 -33 17 -140 14 -135 -4 -166 -13 -201 -63 -13
-19 -30 -30 -45 -30 -19 0 -28 -10 -45 -46 -11 -26 -20 -51 -20 -56 0 -6 -9
-23 -20 -38 -17 -24 -21 -46 -22 -132 -1 -62 3 -112 10 -125 8 -14 9 -24 2
-28 -14 -9 -12 -56 2 -52 7 1 14 -8 16 -20 2 -13 7 -23 12 -23 4 0 10 -17 13
-37 3 -21 8 -48 12 -60 5 -17 3 -23 -8 -23 -9 0 -14 -10 -14 -25 -1 -28 -28
-65 -50 -65 -7 0 -13 -7 -13 -15 0 -18 -30 -55 -45 -55 -6 0 -17 -21 -25 -47
-7 -27 -22 -55 -32 -64 -10 -9 -18 -24 -18 -33 0 -9 -4 -16 -10 -16 -5 0 -10
-6 -10 -12 0 -7 -16 -30 -35 -52 -19 -21 -35 -42 -35 -47 0 -5 -7 -9 -15 -9
-17 0 -22 -75 -5 -85 22 -14 8 -24 -30 -22 -22 1 -40 6 -40 10 0 4 -8 4 -18
-1 -9 -5 -34 -12 -55 -15 -22 -3 -54 -18 -73 -32 -19 -14 -34 -22 -34 -18 -1
4 -8 -5 -16 -20 -8 -16 -20 -25 -26 -21 -7 4 -8 3 -4 -4 4 -7 -3 -22 -14 -34
-44 -47 -79 -112 -91 -166 -7 -32 -16 -61 -21 -67 -16 -18 -8 -69 18 -114 25
-43 159 -181 177 -181 4 0 10 -7 13 -15 3 -8 14 -17 25 -20 11 -4 17 -11 13
-16 -3 -6 0 -9 7 -8 18 4 89 -31 89 -43 0 -5 5 -6 11 -3 21 13 69 -17 78 -49
5 -17 10 -24 10 -17 1 18 71 -47 71 -66 0 -7 6 -13 14 -13 8 0 17 -9 21 -19 5
-18 29 -31 66 -36 18 -2 87 -50 107 -74 7 -9 18 -16 25 -16 7 0 75 -31 152
-68 77 -38 164 -78 193 -89 55 -21 69 -34 27 -26 -32 7 -32 -5 1 -22 24 -13
24 -14 5 -21 -16 -6 -19 -15 -15 -41 4 -37 -14 -65 -93 -145 -24 -23 -43 -47
-43 -52 0 -11 -77 -91 -88 -91 -5 0 -17 -9 -27 -20 -10 -11 -24 -20 -31 -20
-26 0 -42 -42 -34 -90 4 -25 8 -40 9 -35 1 6 8 -1 16 -15 8 -14 14 -20 15 -13
0 6 9 9 20 6 16 -4 20 -14 20 -49 0 -23 -4 -45 -9 -48 -5 -3 -21 -36 -36 -73
-15 -38 -33 -75 -41 -84 -21 -23 -32 -198 -14 -209 8 -5 13 -37 14 -96 1 -49
6 -96 11 -104 6 -8 15 -35 22 -60 9 -37 9 -49 -3 -67 -20 -32 -17 -92 6 -136
24 -44 25 -54 5 -37 -16 13 -21 1 -6 -16 5 -5 14 -27 21 -49 7 -22 27 -62 45
-90 18 -27 36 -60 40 -73 4 -15 12 -21 21 -18 8 3 22 -3 30 -13 15 -17 54 -18
54 -1 0 11 46 29 57 22 5 -4 13 -19 17 -34 8 -37 62 -115 92 -134 13 -9 26
-26 30 -37 4 -12 15 -28 25 -35 11 -7 19 -22 19 -33 0 -18 18 -24 56 -20 6 1
23 -13 38 -29 15 -17 38 -35 51 -40 14 -5 25 -17 25 -27 0 -10 16 -29 35 -43
19 -14 35 -33 35 -42 0 -11 8 -18 19 -18 11 0 22 -4 26 -10 3 -5 12 -7 20 -3
9 3 15 -1 15 -10 0 -9 12 -18 29 -22 16 -3 35 -13 42 -21 6 -8 19 -14 29 -14
9 0 25 -9 35 -20 12 -13 31 -20 54 -20 20 0 81 -4 136 -10 55 -5 172 -17 260
-25 88 -9 178 -20 200 -26 205 -53 667 -72 869 -38 33 6 98 14 145 19 123 12
301 60 301 81 0 5 8 9 18 9 9 0 29 11 44 25 15 14 31 25 36 25 6 0 37 29 71
65 41 44 62 75 63 93 4 67 -6 140 -23 173 -10 20 -18 45 -17 55 0 10 -16 59
-36 108 -20 49 -36 96 -36 103 0 8 -20 55 -45 106 -24 51 -49 115 -54 142 -6
28 -19 69 -30 92 -12 23 -21 54 -21 68 0 15 -5 35 -10 46 -12 21 -16 203 -6
236 6 18 13 21 34 17 33 -7 67 25 59 55 -4 17 4 20 66 29 42 7 82 19 98 31 16
12 37 21 47 21 32 0 114 49 168 100 28 26 69 57 92 69 22 11 47 29 54 38 7 10
20 18 28 18 8 0 15 6 15 14 0 7 17 31 38 51 33 33 53 81 27 65 -14 -9 -12 7 4
28 11 14 15 15 19 5 9 -20 39 23 33 46 -3 10 3 39 13 65 10 25 24 102 31 171
13 130 13 123 -25 270 -3 8 -9 35 -15 60 -12 52 -50 142 -65 152 -5 4 2 8 18
8 15 0 35 4 45 9 38 19 93 41 104 41 7 0 33 23 60 52 66 72 93 152 85 262 -7
114 -61 228 -113 238 -17 3 -19 10 -15 63 2 36 10 70 21 85 10 14 20 41 23 60
3 19 11 55 17 80 31 125 35 245 9 276 -16 19 -23 455 -8 465 10 6 10 11 -1 24
-11 13 -10 19 10 40 12 13 28 21 35 18 9 -3 16 7 21 32 4 25 11 35 20 31 8 -3
14 1 14 8 0 10 7 12 22 8 17 -4 20 -2 15 11 -4 10 -2 17 2 17 5 0 22 20 38 45
15 25 33 45 40 45 7 0 27 20 45 45 18 25 52 67 75 93 24 26 43 52 43 57 0 6
14 25 30 43 17 18 30 35 30 38 0 3 4 10 10 17 51 63 99 129 121 167 14 25 35
49 47 55 12 5 22 18 22 27 0 12 8 18 21 18 12 0 23 8 26 20 3 11 9 18 13 15
13 -8 40 6 40 21 0 8 6 14 13 14 14 0 37 45 37 72 0 10 7 18 15 18 9 0 15 6
14 13 -4 33 4 47 37 68 34 21 38 21 49 6 18 -25 35 -21 35 7 0 14 11 33 25 44
14 11 25 24 25 30 0 5 7 15 15 22 10 9 15 9 15 1 0 -20 38 -12 45 9 4 12 21
36 38 55 54 56 59 66 54 91 -2 13 0 24 4 24 5 0 9 -5 9 -11 0 -6 10 -9 23 -7
12 2 31 -5 41 -14 25 -23 32 -22 52 1 9 10 24 16 35 14 14 -4 19 3 24 30 4 20
4 40 1 46 -4 5 -1 21 6 36 8 17 14 22 19 13 6 -9 13 -9 34 0 22 10 29 9 47 -8
33 -30 91 -27 123 7 27 30 32 62 14 80 -7 7 -13 23 -14 38 -3 20 3 29 21 37
13 6 24 17 24 25 0 7 11 18 24 24 19 9 29 7 50 -6 14 -10 26 -22 26 -27 0 -6
7 -8 15 -4 8 3 15 1 15 -4 0 -18 28 -10 59 16 27 22 31 32 31 75 0 34 -5 51
-14 55 -8 3 -17 12 -20 21 -7 16 17 57 27 46 4 -3 7 -1 7 5 0 14 34 -18 50
-47 8 -16 20 -21 53 -21 55 0 87 9 87 25 0 7 9 15 19 18 35 9 36 137 1 137 -5
0 -7 13 -4 30 4 18 1 36 -6 45 -11 13 -8 15 13 15 14 0 32 7 40 15 9 8 40 18
71 21 l56 7 0 46 c0 56 -24 96 -77 125 -32 18 -38 27 -41 60 -3 28 -9 40 -23
43 -12 3 -18 11 -15 19 10 27 -5 44 -40 44 -19 0 -34 4 -34 8 0 5 -11 15 -25
22 -16 9 -21 16 -14 21 17 10 1 46 -24 53 -15 3 -27 20 -40 56 -17 49 -19 50
-58 50 -34 0 -41 4 -50 28 -25 63 -37 77 -68 80 -17 2 -29 7 -26 12 8 13 -32
50 -54 50 -34 0 -51 12 -51 34 0 23 -37 66 -57 66 -6 0 -13 -7 -17 -15 -3 -10
-19 -15 -46 -15 -33 0 -40 -3 -40 -19 0 -23 -16 -37 -22 -20 -5 16 -48 1 -48
-17 0 -9 -11 -14 -29 -14 -17 0 -33 -5 -36 -10 -4 -7 -13 -6 -26 1 -15 7 -24
7 -35 -2 -8 -6 -29 -15 -47 -18 -32 -7 -32 -7 -32 -70 -1 -35 4 -69 10 -75 5
-6 11 -31 13 -56 1 -25 7 -47 12 -48 6 -2 8 -7 5 -12 -3 -5 4 -12 16 -15 l21
-7 -21 -19 c-12 -11 -21 -24 -21 -29 0 -16 -19 -11 -39 9 -10 10 -25 21 -32
25 -11 5 -11 7 -1 12 15 7 16 36 0 52 -7 7 -33 12 -58 12 l-45 0 -13 -54 c-11
-49 -11 -58 7 -89 16 -29 17 -38 7 -53 -17 -25 -29 -104 -16 -104 5 0 10 -5
10 -11 0 -14 -26 -40 -33 -33 -3 3 -12 -3 -19 -15 -7 -12 -21 -21 -30 -21 -10
0 -18 -4 -18 -9 0 -5 -10 -7 -22 -3 -17 4 -20 2 -15 -11 3 -8 0 -21 -8 -27
-21 -17 -56 -90 -49 -101 3 -6 -6 -21 -21 -35 -20 -19 -25 -31 -21 -49 4 -14
13 -25 20 -25 8 0 24 -9 37 -19 l24 -19 -26 -10 c-15 -6 -29 -18 -33 -27 -7
-19 21 -65 39 -65 8 0 11 -8 8 -21 -4 -15 2 -28 21 -44 l28 -24 -36 -36 c-20
-20 -48 -54 -61 -76 -14 -21 -30 -39 -35 -39 -6 0 -10 -8 -10 -18 0 -19 -49
-69 -62 -64 -5 1 -8 -4 -8 -11 0 -7 -9 -18 -20 -25 -11 -7 -20 -17 -20 -22 0
-22 -113 -128 -165 -155 -35 -19 -55 -36 -55 -47 0 -10 -4 -18 -10 -18 -5 0
-10 -7 -10 -16 0 -11 -6 -14 -20 -9 -11 4 -19 3 -18 -2 1 -4 -4 -19 -12 -33
-7 -14 -13 -26 -12 -27 1 -2 2 -11 1 -20 0 -12 -2 -14 -6 -5 -4 10 -11 8 -29
-9 -13 -12 -21 -26 -18 -30 3 -5 0 -9 -5 -9 -6 0 -11 -9 -11 -20 0 -11 -7 -20
-15 -20 -8 0 -26 -11 -40 -25 -14 -14 -25 -32 -25 -40 0 -8 -9 -15 -19 -15
-12 0 -18 -7 -17 -17 0 -10 -9 -22 -21 -28 -14 -6 -23 -19 -23 -32 0 -13 -15
-36 -35 -54 -19 -18 -32 -35 -30 -40 3 -4 -5 -15 -17 -24 -13 -8 -22 -18 -20
-20 1 -3 2 -11 2 -17 0 -9 -4 -8 -10 2 -8 13 -10 13 -10 -2 0 -11 -5 -15 -15
-12 -8 4 -15 2 -15 -4 0 -6 6 -12 13 -15 6 -3 -1 -10 -17 -16 -16 -6 -46 -30
-66 -53 -21 -23 -43 -38 -49 -34 -7 5 -11 -1 -11 -13 0 -14 -6 -21 -20 -21
-13 0 -20 -7 -20 -20 0 -11 -5 -20 -11 -20 -7 0 -26 -15 -43 -32 -17 -18 -34
-32 -38 -31 -4 2 -12 -15 -18 -36 -6 -22 -14 -41 -19 -43 -5 -2 -17 -18 -28
-37 -10 -19 -33 -42 -51 -51 -17 -9 -29 -19 -26 -22 2 -3 -16 -20 -40 -39 -25
-19 -46 -40 -46 -48 0 -8 -26 -40 -59 -71 -32 -32 -62 -66 -65 -77 -4 -11 -15
-28 -26 -38 -11 -10 -20 -24 -20 -31 0 -8 -6 -11 -15 -8 -10 4 -15 0 -15 -15
0 -12 -6 -21 -14 -21 -8 0 -16 -7 -20 -15 -3 -8 -12 -15 -21 -15 -8 0 -15 -4
-15 -10 0 -5 -6 -10 -14 -10 -19 0 -46 -44 -46 -75 0 -16 -6 -25 -15 -25 -9 0
-18 -7 -22 -16 -5 -13 -7 -13 -14 -2 -6 9 -9 7 -9 -9 0 -18 -6 -23 -25 -23
-20 0 -25 -5 -25 -25 0 -18 -5 -25 -20 -25 -15 0 -20 7 -20 26 0 14 -6 40 -14
57 -15 33 -19 54 -37 171 -13 83 -50 170 -86 201 -6 5 -13 21 -15 35 -2 18
-10 26 -28 28 -14 2 -44 12 -67 22 -23 11 -60 23 -82 26 -47 8 -81 33 -81 60
0 31 -35 52 -103 64 -87 16 -120 11 -127 -18 -3 -13 -9 -23 -14 -22 -5 1 -12
-2 -15 -7 -11 -15 -79 -45 -89 -39 -5 3 -13 -2 -16 -11 -6 -15 -8 -15 -16 -3
-5 8 -19 15 -32 16 -58 4 -108 18 -108 29 0 19 -45 45 -77 45 -16 0 -60 9 -98
20 -38 11 -80 20 -92 20 -12 0 -28 8 -35 18 -7 9 -25 23 -40 29 -31 14 -34 24
-17 55 9 16 7 24 -10 39 -35 33 -28 75 20 120 38 36 40 41 31 69 -7 18 -7 32
-1 35 5 4 9 3 9 -1 0 -4 9 1 19 10 10 9 29 48 41 86 23 71 31 217 20 367 -2
34 -2 64 1 67 3 3 61 8 129 10 91 4 127 2 132 -7 6 -9 10 -8 18 3 9 13 11 13
20 0 8 -12 12 -12 18 -2 8 11 76 16 142 9 19 -1 26 3 28 21 3 20 9 22 68 22
49 0 68 4 82 18 90 94 115 154 125 307 5 69 11 101 22 109 13 10 13 34 3 194
-9 142 -9 188 0 203 7 10 12 36 12 56 0 21 5 54 11 73 6 20 12 167 14 342 l3
307 -53 26 c-30 14 -56 29 -59 34 -4 5 -16 7 -29 4 -16 -3 -18 -2 -8 5 11 8 9
12 -10 23 -38 20 -48 40 -49 97 0 29 -5 62 -10 73 -8 15 -7 19 4 19 12 0 12 6
-2 40 -13 30 -22 40 -35 36 -12 -3 -17 1 -15 12 2 13 -6 18 -39 20 -26 2 -43
-1 -43 -7z"/>
</g>
</svg>
