<?xml version="1.0" standalone="no"?>
<!DOCTYPE svg PUBLIC "-//W3C//DTD SVG 20010904//EN"
 "http://www.w3.org/TR/2001/REC-SVG-20010904/DTD/svg10.dtd">
<svg version="1.0" xmlns="http://www.w3.org/2000/svg"
 width="1024.000000pt" height="1024.000000pt" viewBox="0 0 1024.000000 1024.000000"
 preserveAspectRatio="xMidYMid meet">
<metadata>
Created by potrace 1.14, written by Peter Selinger 2001-2017
</metadata>
<g transform="translate(0.000000,1024.000000) scale(0.100000,-0.100000)"
fill="#000000" stroke="none">
<path d="M0 5120 l0 -5120 5120 0 5120 0 0 5120 0 5120 -5120 0 -5120 0 0
-5120z m7817 4704 c8 -21 -13 -42 -28 -27 -13 13 -5 43 11 43 6 0 13 -7 17
-16z m173 -264 c12 -7 11 -13 -10 -35 -27 -29 -44 -20 -34 19 6 27 19 32 44
16z m-4244 -148 c52 -28 76 -117 54 -199 -33 -124 -103 -164 -189 -108 -114
76 -123 261 -14 316 34 17 110 13 149 -9z m4324 -172 c5 -19 10 -43 10 -54 0
-13 5 -17 20 -13 26 7 31 -3 35 -71 1 -31 5 -75 9 -97 4 -22 -17 23 -47 100
-30 78 -62 155 -71 173 -9 17 -16 37 -16 44 1 22 50 -45 60 -82z m303 6 c31
-24 15 -46 -33 -46 -28 0 -34 19 -14 41 20 22 23 23 47 5z m-705 -43 c2 -14
-5 -24 -27 -33 -30 -12 -51 -8 -51 11 0 5 7 9 15 9 8 0 20 9 27 20 15 24 32
21 36 -7z m-2222 -17 c22 -18 29 -35 34 -80 5 -48 3 -60 -13 -77 -18 -19 -28
-21 -84 -16 -53 4 -70 10 -94 33 -38 36 -40 114 -3 114 8 0 14 5 14 10 0 14
58 39 92 40 15 0 39 -11 54 -24z m3114 -126 c0 -10 -32 -30 -49 -30 -19 0 -12
17 12 28 28 14 37 14 37 2z m-393 -142 c-3 -8 -6 -5 -6 6 -1 11 2 17 5 13 3
-3 4 -12 1 -19z m-4415 -185 c23 -21 23 -65 1 -85 -24 -21 -77 -30 -92 -15 -6
6 -11 35 -11 64 l0 53 42 0 c24 0 49 -7 60 -17z m1642 -15 c23 -32 20 -45 -15
-63 -25 -13 -36 -14 -65 -5 -32 11 -35 15 -29 39 12 53 80 71 109 29z m2874
-130 c28 -84 53 -171 57 -193 10 -67 -10 -19 -45 105 -18 63 -41 138 -51 165
-18 48 -24 75 -15 75 2 0 27 -69 54 -152z m1090 -30 c4 -19 -35 -35 -50 -20
-6 6 -8 18 -4 27 8 21 50 16 54 -7z m-4538 -18 c229 -28 353 -51 365 -69 2 -5
-2 -28 -11 -52 -9 -24 -16 -58 -15 -75 0 -17 -8 -40 -18 -51 -11 -11 -21 -31
-24 -44 -3 -19 -5 -17 -6 9 0 17 4 32 9 32 6 0 10 4 10 8 0 7 -237 42 -310 46
l-25 1 4 -94 3 -94 42 -38 c22 -21 45 -39 50 -39 14 0 56 -50 57 -68 0 -14 2
-13 9 3 5 11 9 14 9 8 1 -18 21 -16 21 2 0 8 5 15 11 15 5 0 7 -6 3 -12 -6 -9
-3 -9 9 0 9 8 21 12 27 10 14 -4 -37 -78 -55 -78 -18 0 -18 2 -2 -46 7 -24 10
-62 6 -99 l-6 -60 -1 65 c-2 81 -24 125 -100 203 -141 144 -290 172 -462 86
-87 -44 -115 -73 -176 -184 -37 -66 -39 -76 -42 -173 -4 -99 -3 -106 27 -166
60 -123 162 -207 268 -221 69 -9 185 11 246 43 26 14 50 22 54 19 3 -4 -1 -7
-10 -7 -8 0 -18 -9 -22 -19 -4 -13 -19 -22 -45 -26 -32 -5 -40 -11 -42 -28 -4
-58 -6 -74 -16 -98 -6 -15 -16 -74 -22 -130 -6 -57 -15 -123 -19 -147 -5 -24
-4 -45 1 -48 5 -3 7 -18 6 -32 -3 -24 0 -27 23 -24 16 2 32 -5 45 -19 l19 -22
-35 7 c-19 4 -63 6 -98 6 -36 -1 -94 7 -135 19 -40 11 -124 29 -187 41 -63 12
-137 25 -165 31 -92 17 -243 40 -326 49 -91 10 -108 20 -102 53 4 21 1 23 -29
19 -48 -5 -90 29 -86 72 l3 31 110 -3 c106 -3 111 -2 153 25 23 15 42 35 42
45 0 22 -55 38 -131 38 -117 0 -206 49 -180 99 12 22 105 69 191 96 70 22 90
40 35 31 -112 -19 -175 -19 -214 -2 -38 18 -38 19 -44 84 -3 37 -4 68 -3 69 1
2 38 -15 82 -38 76 -39 82 -40 155 -37 89 5 165 37 216 90 50 53 83 161 83
271 0 82 -3 99 -31 157 -39 83 -70 115 -132 136 -74 25 -215 11 -319 -31 -16
-6 -18 -1 -18 36 1 24 5 62 10 84 25 111 23 109 100 106 64 -2 126 9 109 20
-8 5 -32 6 -54 2 -50 -7 -37 11 19 26 42 11 67 5 45 -11 -17 -12 101 -2 186
16 54 11 57 13 31 20 -15 4 -43 2 -62 -4 -22 -7 -39 -8 -50 -2 -14 8 -11 11
17 16 19 4 63 13 99 21 36 8 115 18 175 23 148 12 552 13 645 2z m3744 -172
c2 -7 8 -29 14 -47 8 -22 8 -37 2 -41 -16 -10 -5 -108 14 -129 10 -10 13 -22
8 -25 -5 -3 -19 8 -31 24 -12 17 -27 30 -34 30 -7 0 -20 16 -27 35 -8 20 -20
41 -27 47 -7 6 -13 28 -13 49 0 35 2 37 27 35 33 -4 41 -23 17 -41 -15 -11
-17 -18 -8 -32 6 -10 20 -18 30 -18 15 0 19 8 20 38 1 21 -5 45 -13 53 -14 14
-10 34 8 34 5 0 11 -6 13 -12z m-227 -40 c-3 -8 -6 -5 -6 6 -1 11 2 17 5 13 3
-3 4 -12 1 -19z m73 -3 c0 -2 -11 -21 -25 -41 -16 -23 -22 -40 -15 -44 6 -4 8
-26 6 -51 -3 -24 -5 -47 -5 -51 -1 -5 -7 -8 -14 -8 -9 0 -12 -10 -9 -31 3 -22
0 -34 -12 -41 -9 -5 -16 -21 -16 -36 0 -18 -16 -44 -45 -77 -25 -27 -62 -69
-83 -93 -20 -23 -50 -57 -67 -75 -19 -20 -30 -43 -30 -61 0 -16 -6 -31 -12
-33 -7 -3 -13 3 -13 13 0 15 -3 14 -25 -6 -24 -22 -24 -24 -8 -42 11 -13 27
-18 47 -16 29 3 33 8 56 80 14 43 31 78 38 78 15 0 15 -15 0 -39 -9 -15 -8
-22 5 -36 11 -11 15 -25 11 -41 -10 -41 3 -69 45 -92 50 -28 69 -28 77 3 3 14
10 23 14 20 12 -7 0 -48 -18 -62 -23 -19 -35 -16 -78 18 -31 25 -46 30 -71 26
-26 -5 -35 -1 -43 14 -8 15 -15 17 -29 9 -12 -6 -30 -6 -52 0 -52 15 -62 13
-92 -26 -28 -34 -28 -36 -11 -55 16 -18 16 -19 -4 -19 -12 0 -22 4 -22 10 0 5
-13 7 -30 4 -18 -4 -30 -2 -30 4 0 5 55 66 123 134 136 139 197 205 197 215 0
3 12 18 28 33 90 88 117 133 133 224 4 27 13 54 19 60 15 15 12 36 -5 36 -25
0 -17 28 18 65 29 31 47 42 47 30z m244 -41 c18 -7 22 -49 5 -59 -6 -4 -22 3
-35 16 -23 22 -24 24 -8 36 21 15 18 15 38 7z m-373 -32 c-5 -10 -9 -24 -8
-32 1 -8 -2 -16 -8 -17 -5 -2 -10 2 -9 7 1 6 2 21 3 35 0 15 7 25 16 25 12 0
13 -4 6 -18z m-83 -22 c3 -21 2 -22 -12 -11 -19 16 -21 44 -3 39 6 -3 14 -15
15 -28z m407 -20 c3 -5 1 -10 -4 -10 -6 0 -11 5 -11 10 0 6 2 10 4 10 3 0 8
-4 11 -10z m135 0 c0 -5 -4 -10 -10 -10 -5 0 -10 5 -10 10 0 6 5 10 10 10 6 0
10 -4 10 -10z m-433 -25 c-12 -26 -27 -33 -27 -14 0 9 26 37 37 39 0 0 -4 -11
-10 -25z m183 -2 c12 -14 26 -42 31 -60 6 -29 5 -34 -9 -31 -11 2 -16 11 -14
25 8 54 -33 28 -119 -75 -8 -10 -14 -11 -22 -3 -9 9 -5 17 14 34 34 29 91 116
84 128 -13 20 13 7 35 -18z m-3298 -35 c-13 -13 -24 5 -16 27 7 16 8 16 17 0
6 -11 6 -20 -1 -27z m3528 2 c0 -47 15 -53 24 -10 6 34 21 39 35 12 7 -13 5
-26 -4 -43 -27 -46 -28 -52 -17 -70 17 -26 15 -29 -13 -29 -26 0 -28 4 -29 55
-1 21 -8 33 -27 42 -14 7 -34 21 -44 33 -18 19 -18 20 1 20 10 0 28 7 38 15
30 23 36 18 36 -25z m-4858 0 c49 -14 121 -94 138 -154 41 -148 -54 -336 -182
-360 -120 -22 -191 -2 -264 76 -83 87 -90 118 -53 238 26 86 71 139 151 179
66 34 138 41 210 21z m4387 -17 c-13 -16 -25 -30 -26 -32 -2 -2 -5 -2 -8 1 -7
7 34 58 47 58 7 0 1 -12 -13 -27z m-3028 -35 c8 -12 -4 -84 -14 -80 -4 1 -25
2 -47 2 l-40 0 0 43 c0 24 3 47 7 51 9 9 86 -4 94 -16z m3653 -20 c26 -23 36
-40 36 -62 0 -55 12 -76 52 -97 21 -11 43 -17 48 -14 4 3 20 0 34 -7 24 -10
25 -13 10 -29 -14 -16 -11 -22 47 -78 35 -34 69 -61 75 -61 33 0 62 -108 33
-125 -12 -8 -69 29 -117 75 -25 24 -31 35 -22 44 8 8 14 7 23 -4 20 -25 77
-62 89 -58 7 3 -3 18 -22 34 -19 16 -49 45 -68 65 -33 37 -72 44 -72 13 0 -19
-26 -18 -34 1 -3 8 -13 15 -21 15 -14 0 -13 4 5 27 15 19 18 29 9 37 -8 8 -15
5 -26 -11 -16 -24 -33 -30 -33 -13 0 6 -22 32 -50 58 -27 26 -50 51 -50 55 0
15 18 6 58 -29 33 -28 43 -32 48 -20 4 9 -14 35 -49 70 -44 45 -54 61 -49 79
6 21 6 21 16 -5 12 -35 36 -37 36 -4 0 17 -7 27 -22 32 -31 9 -49 24 -42 35 9
15 21 10 58 -23z m-4191 -30 c34 -17 37 -22 37 -61 0 -41 -21 -87 -41 -87 -5
0 -9 14 -9 31 0 18 -4 28 -10 24 -6 -4 -8 -21 -4 -40 8 -43 -5 -49 -63 -32
-75 22 -108 -1 -132 -91 -15 -55 -6 -88 36 -119 92 -71 230 -12 208 89 -6 26
-10 28 -51 28 -42 0 -44 1 -34 20 8 14 17 19 30 15 10 -3 28 0 40 7 18 11 23
10 36 -7 9 -11 13 -31 11 -45 -56 -296 -235 -407 -390 -241 -88 94 -107 169
-72 277 68 207 251 311 408 232z m3791 16 c10 -25 7 -34 -9 -28 -8 4 -15 15
-15 25 0 23 16 25 24 3z m334 -12 c2 -7 -4 -15 -13 -18 -20 -8 -27 -1 -19 20
7 18 25 17 32 -2z m-2810 -66 c4 -33 -13 -56 -42 -56 -31 0 -46 19 -46 57 0
26 5 36 23 42 30 12 61 -9 65 -43z m2079 38 c-3 -3 -12 -4 -19 -1 -8 3 -5 6 6
6 11 1 17 -2 13 -5z m361 -25 c2 -23 2 -23 -13 -5 -18 24 -20 39 -2 34 6 -3
13 -15 15 -29z m522 0 c0 -5 -7 -9 -15 -9 -15 0 -20 12 -9 23 8 8 24 -1 24
-14z m-240 -7 c0 -18 -69 -96 -77 -88 -3 2 4 19 14 36 10 18 22 41 28 51 13
24 35 25 35 1z m-326 -19 c4 -9 2 -21 -4 -27 -7 -7 -10 -7 -10 1 0 6 -3 18 -6
27 -3 9 -2 16 4 16 5 0 13 -8 16 -17z m-30 -44 c14 -17 26 -34 26 -38 0 -8
-25 -27 -60 -44 -25 -13 -28 -27 -15 -59 10 -26 -24 -37 -41 -13 -11 15 -16
16 -30 5 -14 -12 -15 -11 -12 16 2 21 8 29 22 29 22 0 66 74 66 112 0 31 13
29 44 -8z m127 -26 c14 4 21 -1 25 -19 5 -17 13 -24 31 -24 21 0 23 2 13 15
-12 15 -5 55 10 55 5 0 16 -10 24 -22 9 -13 39 -46 67 -75 57 -59 64 -94 9
-46 -19 17 -45 35 -57 41 -19 10 -20 9 -16 -9 3 -11 16 -26 29 -31 13 -6 24
-15 24 -19 0 -4 3 -14 6 -22 3 -10 -3 -20 -16 -27 -20 -11 -21 -10 -15 9 4 15
-1 28 -22 47 -15 14 -39 36 -53 50 -16 15 -32 22 -46 18 -12 -3 -26 1 -33 10
-8 9 -24 16 -37 16 -20 0 -24 5 -24 30 l0 31 31 -17 c17 -8 40 -14 50 -11z
m-3631 -75 c-1 -26 -3 -30 -10 -16 -6 9 -7 23 -4 32 9 25 14 19 14 -16z m3998
0 c-3 -7 -13 -15 -24 -17 -16 -3 -17 -1 -5 13 16 19 34 21 29 4z m-4077 -36
c-7 -2 -18 1 -23 6 -8 8 -4 9 13 5 13 -4 18 -8 10 -11z m4119 4 c0 -3 -4 -8
-10 -11 -5 -3 -10 -1 -10 4 0 6 5 11 10 11 6 0 10 -2 10 -4z m-116 -28 c-10
-13 -30 -33 -44 -45 -21 -18 -22 -22 -7 -23 9 0 17 -6 17 -14 0 -8 11 -17 25
-20 15 -4 24 -13 23 -20 -3 -13 99 -117 138 -141 8 -5 15 -14 15 -19 -1 -11
-51 -15 -51 -4 0 4 -5 8 -12 8 -20 0 -48 32 -48 57 0 26 -15 31 -24 8 -3 -8
-12 -15 -21 -15 -8 0 -15 -4 -15 -10 0 -5 -7 -10 -17 -10 -15 0 -15 2 -1 18
11 12 13 24 7 40 -9 24 -33 29 -46 10 -4 -7 -21 -24 -37 -38 l-28 -25 26 39
c28 43 32 66 14 84 -22 22 -55 12 -104 -33 -27 -24 -52 -45 -56 -45 -14 0 -9
-23 9 -42 9 -10 16 -33 15 -53 -1 -19 3 -35 8 -35 17 0 11 -48 -6 -54 -9 -4
-24 0 -34 9 -19 17 -46 20 -55 5 -3 -5 -1 -10 4 -10 6 0 11 -4 11 -10 0 -18
-16 -11 -64 28 -34 28 -46 44 -46 65 0 20 -5 27 -20 27 -44 0 -15 51 58 101
49 35 56 20 13 -26 -36 -37 -52 -81 -26 -72 9 4 27 7 40 7 15 0 26 7 30 19 3
11 39 45 78 75 40 31 83 69 95 86 13 16 29 30 37 30 7 0 21 8 31 18 22 22 66
52 78 52 5 0 1 -10 -10 -22z m-4164 -14 c0 -9 -5 -14 -12 -12 -18 6 -21 28 -4
28 9 0 16 -7 16 -16z m4308 4 c-5 -16 -99 -88 -113 -87 -5 0 1 8 15 17 14 9
39 31 55 48 32 33 49 42 43 22z m-3941 -50 c-3 -7 -5 -2 -5 12 0 14 2 19 5 13
2 -7 2 -19 0 -25z m3261 2 c-7 -10 -14 -18 -15 -16 -6 6 9 36 18 36 5 0 4 -9
-3 -20z m882 -114 c-6 -6 -20 0 -38 17 -15 15 -31 27 -35 27 -14 0 -7 -38 8
-44 22 -8 18 -26 -6 -26 -36 0 -48 27 -31 70 l14 38 49 -36 c31 -24 45 -40 39
-46z m-510 -111 c-7 -8 -17 -12 -23 -8 -6 4 -3 11 8 19 23 17 32 10 15 -11z
m-325 -21 c-58 -48 -85 -65 -85 -55 0 19 61 80 83 83 34 6 35 -2 2 -28z m756
-15 c37 -26 37 -57 -1 -94 -16 -15 -28 -33 -27 -39 1 -6 -14 -12 -33 -14 -27
-2 -44 4 -73 29 l-38 32 27 28 c15 16 30 29 34 29 3 0 13 -18 23 -40 9 -22 24
-40 32 -40 23 0 18 18 -15 53 -35 37 -37 47 -11 47 10 0 26 -11 35 -25 9 -14
23 -25 31 -25 22 0 18 9 -10 32 -26 20 -34 48 -14 48 6 0 24 -9 40 -21z
m-1163 -1 c-3 -7 -17 -13 -33 -13 -16 0 -30 6 -32 13 -3 8 7 12 32 12 25 0 35
-4 33 -12z m95 -34 c-37 -57 -113 -115 -113 -86 0 13 120 125 126 119 3 -3 -3
-18 -13 -33z m59 -19 c-2 -11 -10 -24 -19 -28 -12 -8 -12 -12 2 -33 9 -15 11
-24 4 -24 -6 0 -13 9 -16 20 -3 11 -12 20 -19 20 -19 0 -18 26 1 34 8 3 15 13
15 21 0 10 7 15 18 13 11 -2 16 -11 14 -23z m316 -7 c-2 -6 -10 -14 -16 -16
-7 -2 -10 2 -6 12 7 18 28 22 22 4z m-183 -18 c-3 -5 -10 -10 -16 -10 -5 0 -9
5 -9 10 0 6 7 10 16 10 8 0 12 -4 9 -10z m497 -27 c23 -21 23 -40 -1 -53 -11
-5 -21 -19 -23 -29 -3 -18 -6 -17 -38 10 -34 29 -35 29 -15 45 11 8 19 22 17
30 -4 20 37 18 60 -3z m-536 -8 c-4 -10 1 -15 14 -15 15 0 20 -7 20 -25 0 -27
-18 -33 -39 -12 -17 17 -108 -80 -186 -199 -40 -60 -104 -134 -199 -229 -144
-143 -304 -286 -328 -294 -7 -2 32 44 87 101 55 58 117 126 138 151 21 26 43
47 50 47 14 0 157 151 157 166 0 7 34 49 75 95 48 53 75 91 75 106 0 17 6 23
23 23 24 0 50 23 80 73 18 28 43 38 33 12z m-194 -25 c-34 -32 -52 -38 -52
-17 0 6 15 19 33 28 49 25 55 21 19 -11z m338 -16 c0 -9 -9 -18 -20 -21 -27
-7 -25 -31 5 -59 28 -26 32 -44 11 -44 -8 0 -23 -12 -34 -27 -11 -16 -24 -25
-28 -21 -4 4 -2 14 5 22 13 15 5 66 -10 66 -5 0 -9 -11 -9 -24 0 -25 -43 -62
-60 -51 -7 5 14 60 30 75 3 3 11 17 17 33 8 16 20 27 32 27 10 0 21 9 24 20 6
24 37 27 37 4z m480 -16 c-29 -47 -25 -52 17 -24 27 19 40 23 50 14 26 -21 10
-109 -22 -122 -17 -6 -79 39 -98 71 -9 15 25 78 46 87 25 10 26 5 7 -26z
m-119 -106 c-12 -22 -60 -56 -68 -48 -3 3 9 24 27 46 21 26 36 38 42 32 6 -6
6 -17 -1 -30z m-217 -10 c-11 -2 -23 -8 -28 -13 -27 -25 -35 4 -9 33 15 17 17
17 36 1 18 -17 19 -18 1 -21z m-3287 -34 c-3 -7 -5 -2 -5 12 0 14 2 19 5 13 2
-7 2 -19 0 -25z m3183 12 c0 -12 -40 -34 -47 -26 -9 8 17 36 33 36 8 0 14 -4
14 -10z m-4806 -40 c7 -24 6 -24 -8 -6 -9 11 -16 27 -16 35 0 21 16 2 24 -29z
m4963 -14 c11 -4 24 -13 27 -21 6 -16 36 -21 36 -6 0 5 -10 15 -22 23 -12 8
-17 17 -12 20 5 3 31 -13 59 -37 l50 -44 -24 -25 c-34 -36 -78 -35 -92 1 -5
15 -19 33 -29 40 -11 8 -20 21 -20 29 0 8 -6 14 -14 14 -18 0 -29 17 -21 31 5
7 12 6 23 -4 10 -8 27 -18 39 -21z m-387 10 c0 -7 -18 -26 -40 -41 -22 -15
-40 -34 -40 -41 0 -8 -14 -33 -31 -57 -22 -30 -29 -49 -25 -68 4 -20 0 -29
-19 -39 -14 -7 -31 -23 -39 -36 -8 -12 -31 -32 -51 -44 -19 -12 -38 -33 -41
-47 -4 -14 -17 -36 -30 -50 -13 -14 -24 -30 -24 -34 0 -18 16 -8 39 26 13 19
27 35 32 35 5 0 9 6 9 14 0 17 30 30 43 17 5 -5 -14 -33 -51 -72 -73 -78 -112
-125 -112 -134 0 -8 -117 -152 -130 -160 -11 -7 -100 83 -100 100 0 5 34 45
75 87 49 51 73 83 69 93 -8 19 -23 19 -31 0 -3 -9 -33 -45 -67 -81 -33 -37
-65 -74 -71 -83 -5 -10 -37 -42 -70 -71 -33 -29 -64 -61 -69 -69 -5 -9 -45
-51 -89 -93 -65 -62 -84 -75 -98 -67 -30 15 -31 -7 -3 -38 21 -22 28 -25 32
-13 7 22 164 180 172 175 4 -3 11 -17 15 -32 7 -30 31 -52 58 -53 27 0 20 27
-12 46 -53 32 -50 54 21 133 39 42 68 53 68 26 0 -8 16 -33 36 -55 l37 -41
-29 -34 c-101 -118 -263 -309 -298 -350 l-25 -30 -16 23 c-9 12 -25 22 -35 22
-10 0 -21 8 -25 19 -7 22 -43 56 -51 48 -3 -3 -3 -14 0 -24 9 -25 80 -103 94
-103 7 0 9 -7 5 -17 -10 -28 -95 -133 -107 -133 -6 0 -23 -18 -38 -38 -35 -50
-118 -142 -127 -142 -12 0 -31 49 -31 80 0 18 -5 30 -13 30 -7 0 -18 14 -24
30 -6 17 -16 30 -22 30 -17 0 -13 -60 4 -66 10 -4 13 -13 10 -25 -4 -12 5 -35
25 -64 37 -54 33 -72 -24 -138 -32 -36 -35 -37 -62 -25 -45 20 -84 66 -84 99
0 17 -9 36 -20 46 -11 10 -20 21 -20 26 0 10 55 73 118 133 23 23 42 45 42 50
0 5 68 79 150 164 135 139 176 195 144 195 -6 0 -53 -48 -105 -106 -121 -135
-361 -393 -371 -397 -5 -2 -8 -9 -8 -16 0 -14 -15 -33 -81 -103 -37 -40 -65
-56 -57 -33 8 23 114 150 126 150 6 0 12 8 12 18 0 10 16 34 36 53 20 18 81
85 137 148 56 63 144 160 195 215 50 55 92 105 92 112 0 20 38 46 58 40 14 -5
34 12 88 76 38 46 105 119 149 164 44 45 94 96 110 114 41 45 130 120 141 120
6 0 105 95 221 210 200 198 253 240 253 196z m268 -18 c2 -8 -9 -23 -23 -32
-22 -15 -25 -15 -25 -1 0 44 41 71 48 33z m-3221 -70 c-3 -7 -5 -2 -5 12 0 14
2 19 5 13 2 -7 2 -19 0 -25z m3141 -10 c-6 -16 -97 -93 -103 -86 -10 10 68 98
87 98 11 0 18 -5 16 -12z m-218 -12 c0 -12 -53 -116 -59 -116 -13 0 -31 24
-31 42 0 21 56 78 76 78 8 0 14 -2 14 -4z m-2923 -58 c-2 -13 -4 -5 -4 17 -1
22 1 32 4 23 2 -10 2 -28 0 -40z m3178 -2 c41 -17 43 -28 13 -56 -26 -24 -37
-25 -66 -4 -27 18 -30 61 -4 67 9 3 18 5 20 6 1 0 18 -6 37 -13z m-3163 -82
c2 -19 2 -36 -1 -37 -3 -1 -89 0 -191 3 -205 6 -192 13 30 14 l145 1 -1 28
c-2 40 13 33 18 -9z m2787 -31 c-35 -44 -44 -53 -51 -53 -16 0 -7 22 20 45 31
28 51 33 31 8z m33 -65 c-6 -6 -15 -9 -18 -5 -4 3 -4 14 0 23 5 13 9 15 18 6
9 -9 9 -15 0 -24z m-638 -271 c-22 -23 -61 -71 -89 -106 -27 -35 -60 -75 -72
-88 -13 -13 -23 -30 -23 -38 0 -8 -7 -15 -16 -15 -15 0 -14 3 2 28 37 57 111
147 166 204 67 67 89 78 32 15z m-2805 -196 c23 -27 41 -59 41 -71 0 -30 -35
-85 -70 -110 -19 -14 -33 -36 -40 -63 -18 -70 -43 -137 -52 -137 -4 0 -8 5 -8
12 0 6 -8 20 -17 31 -22 24 -22 107 1 192 9 32 16 74 16 92 0 34 18 83 35 95
26 19 55 6 94 -41z m-1028 -263 c27 -13 49 -26 49 -30 0 -5 7 -8 15 -8 8 0 24
-9 35 -20 18 -18 20 -33 20 -129 0 -61 -4 -112 -9 -115 -12 -8 -20 45 -20 138
0 68 -3 82 -22 102 -26 28 -99 35 -99 9 0 -8 6 -12 14 -9 19 7 73 -21 86 -45
7 -13 7 -28 0 -46 -5 -14 -10 -44 -10 -66 0 -46 -16 -83 -32 -73 -6 4 -8 -1
-5 -12 14 -48 11 -80 -11 -102 -12 -12 -22 -31 -22 -42 0 -21 -66 -94 -113
-124 -21 -15 -29 -15 -47 -4 -18 11 -23 10 -35 -6 -31 -42 -100 6 -147 102
-31 62 -33 73 -33 172 0 92 3 111 25 155 73 145 231 212 361 153z m554 -108
c30 -11 145 -35 220 -45 65 -9 75 -18 76 -74 1 -25 4 -57 8 -71 6 -19 10 -8
15 47 6 51 12 73 24 78 45 17 54 -66 32 -315 -20 -226 -21 -210 25 -234 39
-21 40 -22 49 -93 17 -136 -20 -195 -132 -214 -31 -5 -58 -9 -59 -9 -2 0 -3
-4 -3 -8 0 -5 13 -15 29 -23 44 -21 171 -148 171 -170 0 -10 5 -19 12 -19 6 0
8 -3 4 -7 -4 -5 9 -13 31 -19 l38 -11 -60 -18 c-148 -44 -410 14 -559 124 -70
52 -180 161 -237 236 -48 63 -99 155 -99 178 0 8 27 36 61 62 113 89 159 164
205 334 21 75 26 116 25 189 l-2 92 50 0 c27 0 62 -5 76 -10z m469 -119 c11
-17 -5 -39 -25 -34 -25 7 -25 43 0 43 11 0 22 -4 25 -9z m109 -15 c29 -22 19
-76 -14 -76 -16 0 -19 -8 -19 -45 0 -26 5 -47 13 -52 48 -29 60 -113 24 -167
-22 -31 -13 -46 30 -46 30 0 36 -13 23 -60 -10 -37 -13 -40 -46 -40 -52 0
-102 24 -110 54 -8 34 1 201 17 316 17 116 39 148 82 116z m902 -28 c22 -26
25 -37 20 -67 -7 -38 -40 -81 -61 -81 -31 0 -86 126 -71 163 4 12 18 17 46 17
32 0 44 -6 66 -32z m-476 -33 c16 -14 33 -34 36 -45 3 -10 15 -22 26 -25 10
-4 19 -14 19 -22 0 -13 -5 -12 -24 6 -17 16 -31 21 -45 16 -12 -3 -21 -10 -21
-14 0 -8 -80 -45 -84 -40 -5 7 -36 125 -36 137 0 8 18 12 49 12 38 0 56 -6 80
-25z m-2351 -84 c-2 -20 -8 -26 -28 -26 -30 0 -40 33 -15 51 25 19 47 6 43
-25z m3926 -67 c13 -34 4 -55 -44 -104 -27 -28 -50 -56 -50 -61 0 -5 -12 -9
-26 -9 -19 0 -25 -4 -20 -15 3 -10 -24 -47 -77 -105 -45 -50 -85 -90 -90 -90
-4 0 -12 11 -17 25 -5 14 -17 25 -26 25 -16 0 -15 -2 2 -22 48 -55 49 -50 -26
-126 -39 -39 -79 -73 -89 -77 -11 -3 -31 -26 -46 -50 -14 -25 -30 -45 -34 -45
-5 0 -48 -46 -97 -102 -143 -168 -742 -758 -775 -765 -41 -8 -56 -29 -28 -38
22 -7 21 -8 -11 -36 -37 -33 -52 -38 -27 -11 16 17 23 42 12 42 -11 0 -287
-286 -365 -378 -47 -56 -92 -102 -100 -102 -8 -1 -31 -26 -50 -57 -19 -30 -70
-88 -113 -127 -105 -97 -184 -193 -168 -209 6 -6 11 -19 11 -28 0 -18 19 -29
49 -29 10 0 26 -9 36 -20 10 -11 24 -20 32 -20 7 0 13 -6 13 -13 0 -8 9 -22
20 -32 11 -10 20 -26 20 -37 0 -28 22 -21 55 17 30 35 74 50 82 29 2 -6 -5
-14 -16 -17 -10 -2 -27 -16 -36 -30 -16 -25 -16 -28 5 -57 12 -16 30 -30 41
-30 22 0 79 54 137 131 23 30 79 99 126 154 47 55 85 105 86 112 0 6 12 22 28
35 15 13 56 57 92 98 35 41 74 84 86 95 37 33 254 277 254 285 0 12 29 20 35
10 6 -10 -63 -91 -269 -315 -162 -176 -236 -261 -323 -372 -37 -48 -86 -107
-108 -132 -52 -59 -77 -99 -70 -111 8 -13 42 -13 50 0 12 20 26 10 15 -10 -6
-11 -8 -25 -5 -30 10 -16 -21 -12 -54 8 -33 18 -54 12 -75 -21 -8 -13 -3 -24
27 -55 67 -68 224 -142 241 -113 12 20 98 71 108 65 5 -3 8 -15 5 -25 -6 -22
-3 -23 25 -8 14 8 23 8 31 0 19 -19 27 -12 21 17 -5 25 -1 30 59 60 113 56
163 142 147 249 -11 65 -24 90 -68 131 -41 37 -33 41 26 12 49 -24 56 -24 72
-5 7 9 38 28 69 42 78 37 170 93 184 112 7 9 22 22 35 29 20 11 22 10 22 -8 0
-11 -7 -20 -15 -20 -22 0 -28 -22 -16 -53 7 -18 18 -27 33 -27 13 0 29 -9 36
-20 16 -26 33 -25 67 2 16 12 41 29 56 38 59 33 159 106 159 115 0 6 14 26 31
45 30 32 49 76 49 110 0 12 -2 12 -9 2 -5 -8 -17 -11 -33 -7 -23 6 -26 3 -32
-30 -9 -47 -79 -125 -112 -125 -13 0 -31 9 -41 19 -10 11 -29 21 -42 23 -63 9
-45 85 24 103 31 8 44 6 77 -13 38 -22 86 -22 72 -1 -12 20 6 57 35 69 16 6
35 24 41 40 21 50 80 47 105 -5 19 -42 9 -67 -35 -90 -17 -9 -30 -19 -30 -24
0 -12 39 -21 46 -10 9 15 24 10 18 -6 -4 -8 -14 -15 -24 -15 -20 0 -43 -23
-33 -33 3 -4 0 -7 -8 -7 -8 0 -32 -18 -53 -41 -21 -22 -66 -59 -100 -81 -81
-55 -198 -150 -266 -218 -190 -187 -373 -519 -491 -887 -22 -71 -109 -292
-145 -371 -13 -29 -24 -55 -24 -58 0 -3 -18 -36 -40 -72 -38 -65 -55 -85 -154
-182 -44 -43 -61 -46 -31 -6 22 29 19 81 -7 110 -31 34 -96 66 -134 66 -49 0
-119 -28 -150 -61 -28 -30 -29 -33 -26 -122 3 -108 16 -126 92 -127 33 0 41
-3 29 -10 -25 -15 -247 -23 -315 -12 -88 15 -206 67 -270 119 -62 50 -205 219
-229 270 -9 17 -20 35 -25 38 -16 10 -12 35 5 35 19 0 20 16 1 23 -8 3 -17 1
-19 -6 -5 -15 -37 21 -74 82 -26 42 -26 44 -8 57 10 8 27 14 37 14 14 0 16 6
12 29 -4 19 -1 37 9 51 21 30 29 12 29 -71 1 -38 3 -69 6 -69 13 0 42 35 42
51 0 25 11 49 22 49 5 0 7 -13 3 -30 -6 -26 -4 -30 14 -30 22 0 27 -16 11 -40
-8 -13 -10 -13 -10 2 0 29 -19 30 -51 4 -17 -14 -40 -26 -51 -26 -11 0 -18 -5
-16 -12 6 -18 39 -23 48 -8 6 9 13 7 28 -8 12 -12 17 -24 12 -27 -13 -8 -13
-35 -1 -35 5 0 22 -5 37 -10 21 -8 24 -14 16 -22 -22 -22 -12 -28 42 -28 100
0 153 31 182 106 18 47 15 90 -9 146 -8 18 -19 45 -25 59 -6 15 -24 42 -41 61
-16 19 -37 53 -46 75 -10 25 -41 64 -75 95 -52 49 -60 53 -88 46 -24 -7 -29
-12 -25 -31 4 -21 4 -21 -8 -2 -6 11 -21 28 -33 37 l-21 16 28 7 c15 4 27 13
27 20 0 7 5 15 12 17 8 3 3 14 -15 32 -15 15 -27 33 -27 40 0 8 -13 16 -30 20
-23 4 -30 11 -30 28 0 21 -1 21 -17 5 -14 -14 -15 -20 -4 -40 7 -13 11 -27 10
-33 -5 -15 11 -54 22 -54 5 0 9 9 9 20 0 11 7 20 15 20 10 0 15 -10 15 -30 0
-19 -5 -30 -14 -30 -7 0 -17 -10 -20 -22 l-6 -23 -20 24 c-11 13 -20 29 -20
37 0 7 -5 35 -10 61 -10 43 -17 52 -68 88 -31 22 -73 47 -94 57 -37 17 -111
101 -134 153 l-13 30 -1 -26 c0 -30 70 -141 104 -165 11 -8 50 -34 86 -56 36
-23 67 -43 69 -44 2 -2 -12 -21 -32 -43 -53 -59 -55 -81 -18 -154 18 -34 46
-74 63 -89 31 -27 31 -28 19 -70 -8 -24 -18 -56 -24 -71 l-10 -28 -23 22 c-19
18 -21 24 -11 40 10 16 9 21 -2 28 -8 5 -11 16 -8 25 4 9 4 23 1 31 -7 18 -31
20 -37 3 -4 -10 -7 -10 -18 -1 -9 10 -10 13 -1 13 7 0 12 5 12 10 0 16 -17 11
-24 -7 -4 -9 -2 -20 5 -23 6 -4 9 -17 7 -29 -3 -20 -7 -17 -41 23 -40 49 -41
66 -2 66 30 0 50 32 36 59 -6 10 -22 26 -36 35 -21 14 -29 15 -41 5 -8 -6 -14
-17 -14 -25 0 -19 -17 -26 -38 -15 -20 11 -96 117 -106 148 -4 12 -1 25 7 31
10 9 12 33 9 96 -4 72 0 105 29 218 27 108 43 149 83 217 85 143 169 184 384
186 67 1 125 5 129 8 11 12 23 7 23 -9 0 -11 6 -13 19 -9 12 4 40 -6 75 -25
50 -29 71 -50 48 -50 -5 0 -16 -16 -25 -35 -10 -21 -31 -42 -56 -54 -43 -23
-221 -198 -221 -218 0 -20 101 -133 119 -133 21 0 271 297 271 322 0 6 -9 8
-20 5 -21 -5 -20 -2 12 45 22 32 23 49 3 42 -8 -4 -15 -13 -15 -21 0 -8 -5
-13 -12 -11 -18 6 -22 28 -5 28 8 0 17 8 19 18 8 29 117 117 129 105 21 -21
83 28 179 139 142 166 201 228 215 228 7 0 43 35 81 78 38 42 114 121 169 175
l100 97 -24 19 c-13 10 -22 23 -20 30 3 8 12 5 26 -9 12 -11 27 -20 32 -20 14
0 153 156 173 195 10 19 26 40 36 47 9 7 46 47 82 88 114 132 310 341 596 635
38 39 121 127 184 195 63 68 152 163 197 210 46 47 83 90 83 97 0 6 6 18 13
25 7 7 20 25 30 41 22 35 46 36 39 2 -8 -44 20 -27 83 50 33 41 61 79 63 85 6
16 29 12 36 -6z m45 -121 l30 -37 -26 -35 -26 -36 25 23 c54 49 84 7 52 -72
-28 -67 -108 -101 -140 -60 -17 21 -36 18 -29 -6 5 -14 -7 -37 -44 -82 -28
-34 -48 -64 -45 -67 2 -3 27 17 54 44 42 41 51 46 65 35 8 -7 15 -24 15 -38 0
-35 -47 -101 -77 -108 -28 -7 -73 13 -73 32 0 7 -23 35 -52 62 l-52 50 26 33
c14 19 54 63 89 98 l63 64 15 -31 c8 -18 23 -34 33 -38 10 -3 18 -11 18 -19 0
-15 51 -27 64 -15 4 5 -1 16 -13 26 -11 10 -21 24 -21 32 0 7 -4 11 -9 8 -11
-7 -71 41 -71 57 0 14 81 117 92 117 3 0 20 -17 37 -37z m261 10 l33 -16 -22
-19 c-13 -10 -27 -15 -32 -12 -5 3 -22 -8 -38 -25 -29 -31 -55 -39 -66 -21 -6
10 70 110 84 110 5 0 23 -7 41 -17z m-3665 -170 c17 -35 17 -40 1 -92 -10 -31
-22 -72 -28 -91 -20 -68 -80 -176 -121 -218 -73 -76 -107 -85 -209 -55 -57 17
-58 18 -52 48 6 30 24 60 123 202 52 76 73 105 136 191 37 50 41 52 86 52 44
0 48 -2 64 -37z m3485 -77 c0 -12 5 -27 11 -33 8 -8 7 -13 -2 -18 -23 -15 -54
57 -33 78 11 11 24 -3 24 -27z m-378 -113 c15 -15 28 -34 28 -43 0 -20 -166
-180 -186 -180 -8 0 -19 -11 -24 -25 -13 -35 -28 -31 -46 10 -16 38 -12 55 12
55 8 0 14 9 14 21 0 23 143 189 163 189 6 0 24 -12 39 -27z m312 -94 c32 -38
33 -55 4 -63 -44 -11 -65 -6 -76 18 -9 20 -7 28 11 49 12 14 25 26 29 26 3 1
18 -13 32 -30z m-225 -8 c33 -46 23 -91 -21 -91 -11 0 -33 -7 -50 -16 -24 -12
-36 -13 -54 -5 -13 6 -24 15 -24 21 0 11 110 119 122 120 4 0 16 -13 27 -29z
m241 -121 c0 -5 -6 -10 -14 -10 -8 0 -18 5 -21 10 -3 6 3 10 14 10 12 0 21 -4
21 -10z m-567 -44 c15 -19 27 -39 27 -44 0 -4 -14 -21 -31 -38 -17 -16 -40
-48 -51 -71 -11 -23 -54 -79 -97 -125 -42 -46 -84 -93 -92 -105 -8 -12 -96
-107 -195 -211 -98 -104 -207 -219 -241 -255 -54 -59 -65 -66 -90 -62 -30 6
-15 19 -273 -230 -47 -45 -103 -95 -125 -112 -40 -32 -155 -146 -239 -238 -25
-27 -46 -47 -46 -43 0 5 15 25 34 45 18 21 49 63 69 93 42 66 201 225 215 216
6 -3 66 47 134 111 68 65 155 146 193 181 39 34 79 76 90 92 11 17 28 30 37
30 11 0 15 5 12 15 -10 24 -25 18 -60 -24 -43 -50 -99 -78 -118 -58 -11 11 -9
19 15 53 16 21 32 46 36 54 10 22 271 281 383 380 52 47 129 121 171 165 42
44 95 100 118 125 24 25 50 55 58 68 21 30 33 28 66 -12z m187 -13 c0 -7 -6
-13 -13 -13 -16 0 -60 44 -51 52 9 9 64 -25 64 -39z m-3549 -40 c22 -13 34
-34 54 -93 14 -43 25 -84 25 -93 0 -9 10 -23 22 -31 l22 -16 -27 -55 c-47 -96
-158 -155 -292 -155 -73 0 -74 0 -101 36 -22 28 -25 40 -17 52 7 12 7 23 -2
37 -10 16 -11 29 -1 67 16 58 53 114 129 188 46 46 68 60 105 68 26 5 49 10
50 11 2 0 17 -7 33 -16z m3704 -19 c30 -19 38 -40 25 -65 -13 -23 -24 -24 -50
-2 -24 21 -28 58 -5 50 8 -4 17 -2 20 3 4 6 -1 10 -9 10 -9 0 -16 5 -16 10 0
14 7 13 35 -6z m-210 -5 c8 -11 -53 -104 -122 -186 -24 -29 -61 -75 -82 -102
-20 -28 -50 -65 -67 -83 -16 -18 -79 -94 -139 -168 -113 -140 -180 -222 -250
-302 -22 -25 -50 -60 -63 -77 l-22 -30 -32 30 c-18 16 -37 29 -42 29 -5 0 -45
-37 -90 -82 -45 -46 -110 -110 -144 -143 -34 -33 -62 -62 -62 -65 0 -3 -70
-78 -156 -165 -86 -88 -187 -197 -225 -242 -38 -45 -74 -85 -80 -88 -31 -20
-8 13 93 130 61 72 122 146 136 165 26 34 49 58 345 349 82 80 157 163 169
185 20 39 76 103 238 271 47 50 151 160 230 245 79 85 169 180 200 210 31 30
65 67 76 81 31 42 75 61 89 38z m-127 -54 c-25 -38 -45 -48 -27 -12 16 31 30
47 40 47 5 0 -1 -16 -13 -35z m-1051 -14 c94 -6 183 -11 198 -11 l28 0 -6 -63
c-9 -94 -40 -155 -150 -294 -155 -198 -241 -296 -268 -307 -17 -7 -45 -37 -69
-75 -23 -35 -44 -61 -47 -57 -3 3 8 36 25 73 45 99 46 123 4 123 -41 0 -62
-29 -78 -106 -16 -77 -13 -96 23 -123 l25 -20 -39 -46 c-28 -33 -43 -44 -58
-40 -11 3 -62 10 -113 15 -83 9 -163 26 -272 59 -49 15 -47 16 -70 -36 -35
-80 -43 -93 -56 -93 -17 0 -27 -32 -13 -41 32 -19 -48 -130 -109 -150 -30 -10
-38 -9 -61 10 -14 11 -44 31 -66 42 -22 12 -54 32 -71 45 -17 13 -43 24 -57
24 -15 0 -27 5 -27 10 0 6 5 10 12 10 6 0 1 11 -12 25 -32 34 -42 31 -35 -9 4
-20 2 -36 -4 -40 -6 -4 -11 -23 -11 -42 0 -19 -2 -34 -4 -34 -12 0 -82 27
-146 57 -41 19 -95 43 -120 53 -97 38 -312 150 -378 196 -79 55 -222 180 -222
195 0 5 4 9 10 9 5 0 35 16 66 36 53 34 78 53 140 110 26 23 64 112 64 149 0
15 9 29 21 36 21 11 21 9 15 -28 -7 -41 -9 -93 -3 -99 2 -2 19 1 37 6 25 7 36
6 42 -3 6 -9 12 -9 29 1 14 9 25 10 31 4 6 -6 16 -8 23 -5 7 2 46 -10 86 -28
41 -17 85 -35 99 -40 37 -11 167 -66 235 -99 33 -15 80 -37 105 -48 177 -79
319 -153 344 -181 32 -33 56 -40 56 -16 0 19 126 189 284 385 109 135 186 251
249 376 14 28 37 65 52 82 23 27 29 29 58 22 17 -5 109 -13 204 -19z m-933
-98 c4 -9 2 -49 -5 -89 -6 -40 -8 -89 -5 -108 7 -35 37 -63 56 -51 5 3 18 1
27 -4 16 -9 16 -10 -4 -11 -13 0 -23 -4 -23 -9 0 -13 43 -46 79 -61 59 -24 83
11 34 51 l-28 22 43 -7 c34 -5 48 -2 71 15 32 24 59 22 75 -4 9 -16 5 -24 -27
-52 -63 -55 -117 -75 -199 -75 -79 0 -89 4 -107 37 -16 31 -14 43 9 43 13 0
24 -10 30 -25 11 -29 32 -40 56 -31 15 6 15 8 -2 27 -11 12 -29 25 -41 30 -13
5 -23 15 -23 24 0 26 -27 16 -40 -15 -8 -19 -10 -49 -6 -82 3 -29 3 -58 -1
-63 -18 -24 -66 -46 -86 -41 -49 13 -51 18 -24 97 17 51 27 108 32 184 8 123
15 148 53 188 30 31 47 34 56 10z m2652 -348 c3 -14 10 -25 16 -25 5 0 8 -9 6
-21 -4 -24 -74 -55 -81 -35 -3 8 -8 8 -17 -1 -10 -9 -18 -9 -34 -1 -29 15 -36
28 -36 66 0 30 2 32 35 32 23 0 35 -5 34 -12 -6 -46 10 -49 34 -8 22 37 35 38
43 5z m-1516 -286 c0 -5 -7 -9 -15 -9 -15 0 -20 12 -9 23 8 8 24 -1 24 -14z
m-189 -52 c-10 -9 -11 -8 -5 6 3 10 9 15 12 12 3 -3 0 -11 -7 -18z m109 -22
c-7 -9 -15 -13 -17 -11 -7 7 7 26 19 26 6 0 6 -6 -2 -15z m-310 -180 c-7 -9
-15 -13 -17 -11 -7 7 7 26 19 26 6 0 6 -6 -2 -15z m605 -66 c4 -6 22 -8 46 -4
50 9 50 -5 -1 -39 -48 -31 -50 -32 -50 -6 0 36 -26 21 -109 -60 -44 -44 -88
-80 -96 -80 -18 0 -20 30 -2 30 6 1 52 39 102 85 49 47 93 85 97 85 4 0 10 -5
13 -11z m136 -22 c-1 -4 -1 -18 -1 -31 0 -14 -25 -57 -59 -103 -71 -94 -258
-289 -268 -280 -4 4 20 36 54 70 96 98 198 230 229 296 16 33 33 59 37 58 5
-1 8 -6 8 -10z m-1138 -104 c-7 -20 -51 -63 -65 -63 -16 0 -8 19 10 25 11 3
24 17 30 30 13 28 35 35 25 8z m1267 -26 c0 -7 -6 -21 -13 -32 -19 -26 -30 -3
-11 23 17 25 24 28 24 9z m-1340 -61 c0 -8 -7 -16 -15 -20 -15 -5 -21 14 -8
27 11 12 23 8 23 -7z m937 -13 c7 -19 -44 -40 -60 -24 -9 10 -8 15 8 27 22 17
46 15 52 -3z m-267 -179 c0 -8 -6 -11 -15 -8 -8 4 -15 12 -15 20 0 8 6 11 15
8 8 -4 15 -12 15 -20z m-210 13 c0 -2 -10 -12 -22 -23 l-23 -19 19 23 c18 21
26 27 26 19z m284 -49 c11 -7 -20 -48 -37 -48 -5 0 -16 -8 -23 -17 -12 -17
-13 -17 -14 -1 0 9 5 20 10 23 6 3 10 16 10 27 0 25 33 54 39 35 2 -7 9 -15
15 -19z m-1224 -8 c0 -5 -5 -10 -11 -10 -5 0 -7 5 -4 10 3 6 8 10 11 10 2 0 4
-4 4 -10z m884 -5 c-4 -8 -11 -15 -16 -15 -6 0 -5 6 2 15 7 8 14 15 16 15 2 0
1 -7 -2 -15z m-1494 -33 c0 -4 -15 -14 -34 -20 -19 -7 -50 -24 -70 -37 -34
-23 -36 -23 -36 -5 0 20 21 36 75 57 36 14 65 16 65 5z m1470 4 c0 -2 -13 -19
-30 -37 -16 -19 -30 -30 -30 -25 0 6 12 23 27 38 26 27 33 32 33 24z m190
-296 c0 -5 -5 -10 -11 -10 -5 0 -7 5 -4 10 3 6 8 10 11 10 2 0 4 -4 4 -10z
m78 -40 c29 -27 28 -42 -1 -35 -15 4 -28 1 -36 -9 -15 -18 -81 -22 -81 -5 0 5
10 9 22 7 16 -2 28 6 43 29 24 38 25 39 53 13z m-1203 -592 c30 -62 29 -58 7
-58 -27 0 -62 29 -62 51 0 20 17 59 25 59 3 0 16 -23 30 -52z m-137 -1 c5 -24
-15 -21 -28 4 -10 18 -9 20 7 17 10 -2 19 -11 21 -21z m-62 -19 c-11 -15 -16
-18 -16 -7 0 16 21 42 28 34 2 -2 -3 -14 -12 -27z m257 -62 c-10 -13 -19 -23
-21 -21 -5 5 22 45 31 45 4 0 0 -11 -10 -24z m-393 -170 c0 -17 -14 -29 -23
-20 -8 8 3 34 14 34 5 0 9 -6 9 -14z m-117 -99 c-35 -50 -55 -57 -71 -22 -16
35 -16 63 0 47 20 -20 56 -14 75 12 31 41 27 6 -4 -37z m557 18 c0 -9 -7 -18
-16 -22 -9 -3 -24 -25 -35 -49 -10 -24 -23 -44 -28 -44 -12 0 -5 19 28 88 21
41 51 57 51 27z m23 -72 c6 -32 3 -38 -12 -28 -13 8 -15 55 -2 55 5 0 11 -12
14 -27z m677 -259 c0 -7 7 -20 16 -28 20 -21 14 -50 -12 -54 -16 -2 -23 7 -37
51 -22 69 -22 69 8 55 14 -6 25 -17 25 -24z"/>
<path d="M4045 8500 c3 -5 14 -10 23 -10 15 0 15 2 2 10 -20 13 -33 13 -25 0z"/>
<path d="M3697 7969 c-32 -26 -37 -36 -37 -71 0 -102 44 -158 123 -158 107 0
143 171 49 235 -50 34 -89 32 -135 -6z"/>
<path d="M9015 7880 c3 -5 8 -10 11 -10 2 0 4 5 4 10 0 6 -5 10 -11 10 -5 0
-7 -4 -4 -10z"/>
<path d="M9002 7818 c-7 -7 -12 -16 -12 -20 0 -12 28 -10 36 3 10 17 -10 31
-24 17z"/>
<path d="M8340 7890 c0 -5 5 -10 10 -10 6 0 10 5 10 10 0 6 -4 10 -10 10 -5 0
-10 -4 -10 -10z"/>
<path d="M7870 6879 c0 -5 5 -7 10 -4 6 3 10 8 10 11 0 2 -4 4 -10 4 -5 0 -10
-5 -10 -11z"/>
<path d="M7782 6787 c-99 -101 -113 -128 -25 -48 74 67 100 97 90 107 -2 2
-31 -24 -65 -59z"/>
<path d="M7663 6584 c-3 -8 1 -23 10 -32 15 -14 17 -14 23 1 8 21 -1 47 -16
47 -6 0 -13 -7 -17 -16z"/>
<path d="M7160 6101 c0 -5 5 -13 10 -16 6 -3 10 -2 10 4 0 5 -4 13 -10 16 -5
3 -10 2 -10 -4z"/>
<path d="M7200 5999 c0 -24 23 -21 28 4 2 10 -3 17 -12 17 -10 0 -16 -9 -16
-21z"/>
<path d="M6946 5888 c13 -42 74 -128 90 -128 13 0 11 7 -10 34 -14 19 -26 37
-26 40 0 12 -45 76 -53 76 -5 0 -5 -10 -1 -22z"/>
<path d="M6680 5585 c0 -8 5 -15 10 -15 6 0 10 7 10 15 0 8 -4 15 -10 15 -5 0
-10 -7 -10 -15z"/>
<path d="M3476 5798 c8 -28 23 -48 35 -48 5 0 9 6 9 13 -1 13 -34 57 -45 57
-3 0 -3 -10 1 -22z"/>
<path d="M4329 5552 c-72 -114 -101 -178 -96 -219 l3 -38 14 33 c11 25 20 32
41 32 24 0 28 5 32 38 2 20 16 69 31 107 43 118 33 139 -25 47z"/>
<path d="M4278 5343 c7 -3 16 -2 19 1 4 3 -2 6 -13 5 -11 0 -14 -3 -6 -6z"/>
<path d="M3965 5203 c17 -9 32 -19 35 -22 3 -4 22 -17 43 -30 28 -17 37 -19
37 -8 0 8 -18 22 -40 32 -22 10 -45 24 -51 32 -6 7 -21 13 -33 13 -18 -1 -17
-3 9 -17z"/>
<path d="M4417 5193 c-2 -5 -7 -20 -10 -34 -4 -14 -19 -32 -34 -39 l-28 -14
29 -4 c34 -4 65 27 66 65 0 22 -15 39 -23 26z"/>
<path d="M4100 5130 c8 -5 20 -10 25 -10 6 0 3 5 -5 10 -8 5 -19 10 -25 10 -5
0 -3 -5 5 -10z"/>
<path d="M4200 5038 c0 -19 12 -34 33 -41 16 -6 16 -4 -3 23 -23 33 -30 37
-30 18z"/>
<path d="M4560 5504 c0 -9 5 -14 12 -12 18 6 21 28 4 28 -9 0 -16 -7 -16 -16z"/>
<path d="M6407 5362 c-10 -10 -17 -22 -17 -26 0 -12 37 13 44 29 8 21 -7 19
-27 -3z"/>
<path d="M4113 2847 c-42 -58 -118 -155 -193 -244 -23 -28 2 -47 28 -21 18 18
25 3 10 -21 -9 -16 -10 -23 -1 -32 14 -14 74 32 211 164 51 50 96 87 100 83 4
-4 -46 -59 -111 -123 -64 -63 -117 -120 -117 -126 0 -6 31 20 70 58 38 38 72
66 75 63 3 -3 -35 -44 -84 -90 l-90 -85 43 -47 c44 -47 44 -47 60 -25 8 12 68
79 134 148 86 91 120 135 125 159 5 23 33 62 86 120 44 48 78 88 76 90 -2 3
-17 -10 -32 -29 -15 -18 -37 -41 -48 -52 -21 -20 -119 -87 -127 -87 -16 0 -46
40 -52 68 -10 41 -28 41 -67 -3 -18 -19 -37 -35 -43 -35 -5 0 6 17 26 38 41
43 57 86 29 77 -10 -3 -24 1 -31 10 -7 8 -15 15 -19 15 -3 0 -29 -33 -58 -73z
m49 -9 c-12 -18 -36 -44 -54 -58 l-33 -25 20 25 c28 36 78 90 83 90 2 0 -5
-15 -16 -32z m-21 -86 c-12 -22 -51 -58 -51 -47 0 9 50 65 57 65 2 0 -1 -8 -6
-18z m79 -77 c-7 -9 -15 -13 -17 -11 -7 7 7 26 19 26 6 0 6 -6 -2 -15z"/>
<path d="M4415 2662 c-24 -8 -295 -287 -295 -304 0 -20 31 -47 48 -41 32 12
136 104 237 211 54 58 58 65 42 76 -18 14 -24 46 -8 46 5 0 11 -9 14 -20 5
-20 47 -29 47 -11 0 9 -54 52 -62 50 -1 -1 -12 -4 -23 -7z"/>
<path d="M4495 2562 c-17 -11 -65 -57 -108 -104 -43 -47 -102 -103 -132 -124
-30 -20 -55 -41 -55 -45 0 -15 78 -49 111 -49 27 0 46 14 127 98 65 66 97 92
100 82 3 -9 -16 -34 -49 -65 -64 -59 -96 -100 -138 -178 -34 -62 -37 -86 -19
-138 30 -90 104 -142 197 -140 62 1 101 27 101 67 0 48 -42 135 -91 188 -27
30 -49 60 -49 67 0 7 28 39 61 70 36 33 59 62 55 68 -4 6 -12 9 -17 6 -21 -13
-30 7 -12 27 13 15 18 35 17 82 -1 102 -32 129 -99 88z"/>
<path d="M4900 2342 c-64 -41 -110 -96 -110 -133 0 -38 13 -63 53 -100 26 -23
41 -28 80 -29 128 0 159 90 79 235 -15 27 -34 51 -42 53 -8 1 -35 -10 -60 -26z"/>
<path d="M3309 2343 c5 -10 21 -29 35 -42 22 -21 26 -22 26 -7 0 9 -12 28 -27
41 -33 29 -47 32 -34 8z"/>
<path d="M4746 1971 c-4 -6 -16 -11 -26 -11 -10 0 -35 -15 -54 -34 -30 -28
-36 -40 -36 -75 0 -61 21 -95 72 -114 24 -9 52 -16 63 -15 11 0 48 -3 82 -7
58 -7 63 -6 87 18 32 32 34 82 7 136 -23 45 -84 101 -110 101 -10 0 -32 3 -49
6 -17 4 -32 1 -36 -5z"/>
<path d="M4310 1754 c-39 -26 -50 -45 -50 -87 0 -44 43 -133 72 -148 26 -14
113 33 133 71 19 38 19 99 -1 128 -34 49 -108 66 -154 36z"/>
<path d="M5512 4154 c-45 -50 -35 -53 13 -4 22 22 34 40 29 40 -6 0 -25 -16
-42 -36z"/>
</g>
</svg>
